name analog
datacolumns 19
datarows 28
range 0.0 0.0135
endheader
time	ground_force_vx	ground_force_vy	ground_force_vz	ground_force_px	ground_force_py	ground_force_pz	l_ground_force_vx	l_ground_force_vy	l_ground_force_vz	l_ground_force_px	l_ground_force_py	l_ground_force_pz	ground_torque_x	ground_torque_y	ground_torque_z	l_ground_torque_x	l_ground_torque_y	l_ground_torque_z
0.0	-0.0	-0.0	-0.0	-10.186330795288086	35.99613571166992	-380.8572998046875	6.971973896026611	-36.76155853271485	-401.53802490234375	-0.0	-0.0	-0.0	-0.0	-0.0	-0.0	122850.8984375	13298.400390625	-1143.7099609375
0.0005	-0.0	-0.0	-0.0	-10.238988876342772	35.77773666381836	-379.1551513671875	6.850666522979736	-36.83014678955078	-402.3652038574219	-0.0	-0.0	-0.0	-0.0	-0.0	-0.0	122870.03125	13173.234375	-1227.3746337890625
0.001	-0.0	-0.0	-0.0	-9.942971229553224	35.830421447753906	-378.4805908203125	6.923234939575195	-36.7418212890625	-402.6506042480469	-0.0	-0.0	-0.0	-0.0	-0.0	-0.0	123075.4765625	13518.166015625	-1204.358154296875
0.0015	-0.0	-0.0	-0.0	-9.817444801330566	35.97217559814453	-379.749267578125	6.830730438232422	-36.757904052734375	-403.3650207519531	-0.0	-0.0	-0.0	-0.0	-0.0	-0.0	123169.84375	13169.69140625	-1321.828125
0.002	-0.0	-0.0	-0.0	-9.9434232711792	35.611141204833984	-379.7778015136719	6.548523426055908	-36.61734390258789	-403.5232238769531	-0.0	-0.0	-0.0	-0.0	-0.0	-0.0	123318.1171875	13064.1572265625	-1239.78271484375
0.0025	-0.0	-0.0	-0.0	-9.829158782958984	35.76187515258789	-379.6050720214844	6.5325446128845215	-36.79396438598633	-404.666748046875	-0.0	-0.0	-0.0	-0.0	-0.0	-0.0	123343.7109375	13412.5830078125	-1269.5350341796875
0.003	-0.0	-0.0	-0.0	-9.765373229980469	35.972076416015625	-379.58642578125	6.851158142089844	-36.6738395690918	-404.7923278808594	-0.0	-0.0	-0.0	-0.0	-0.0	-0.0	123310.0390625	13345.244140625	-1238.167236328125
0.0035	-0.0	-0.0	-0.0	-9.849835395812988	35.96117401123047	-378.3812561035156	6.616891860961914	-36.93427658081055	-404.0934143066406	-0.0	-0.0	-0.0	-0.0	-0.0	-0.0	123323.859375	13406.640625	-1297.7156982421875
0.004	-0.0	-0.0	-0.0	-9.566433906555176	35.89866256713867	-379.4201049804688	6.684953212738037	-36.7103157043457	-403.9061279296875	-0.0	-0.0	-0.0	-0.0	-0.0	-0.0	123380.875	13290.8818359375	-1245.1690673828125
0.0045000000000000005	-0.0	-0.0	-0.0	-9.849900245666504	35.9195556640625	-379.6061706542969	6.475887298583984	-37.02246475219727	-404.7907104492188	-0.0	-0.0	-0.0	-0.0	-0.0	-0.0	123764.0625	13330.564453125	-1386.8087158203125
0.005	-0.0	-0.0	-0.0	-9.477449417114258	36.18694305419922	-379.7923583984375	6.246274471282959	-36.95482635498047	-405.2213134765625	-0.0	-0.0	-0.0	-0.0	-0.0	-0.0	123605.15625	13270.15625	-1345.0665283203125
0.0055	-0.0	-0.0	-0.0	-9.73952865600586	36.15016555786133	-379.2535705566406	6.574873924255371	-36.736515045166016	-405.22119140625	-0.0	-0.0	-0.0	-0.0	-0.0	-0.0	123561.9140625	13250.646484375	-1243.5418701171875
0.006	-0.0	-0.0	-0.0	-9.702613830566406	36.11912536621094	-378.7931823730469	6.528013706207275	-37.00679016113281	-405.7969970703125	-0.0	-0.0	-0.0	-0.0	-0.0	-0.0	123670.359375	13210.34765625	-1217.62451171875
0.006500000000000001	-0.0	-0.0	-0.0	-9.739385604858398	35.70444107055664	-378.0485534667969	6.711085319519043	-36.69969940185547	-405.919189453125	-0.0	-0.0	-0.0	-0.0	-0.0	-0.0	123552.7734375	13093.841796875	-1213.7005615234375
0.007	-0.0	-0.0	-0.0	-9.83471393585205	35.85196304321289	-378.2557373046875	6.674575805664063	-36.95496368408203	-405.7141723632813	-0.0	-0.0	-0.0	-0.0	-0.0	-0.0	123935.5859375	13143.5791015625	-1236.3062744140625
0.0075	-0.0	-0.0	-0.0	-9.560833930969238	36.18061828613281	-377.98822021484375	6.726682186126709	-36.99151611328125	-405.3650512695313	-0.0	-0.0	-0.0	-0.0	-0.0	-0.0	123948.78125	13016.0634765625	-1198.3123779296875
0.008	-0.0	-0.0	-0.0	-9.3888578414917	35.806495666503906	-379.1343383789063	6.940903186798096	-37.0737419128418	-405.015869140625	-0.0	-0.0	-0.0	-0.0	-0.0	-0.0	124073.6953125	13164.1572265625	-1114.330078125
0.0085	-0.0	-0.0	-0.0	-9.463022232055664	35.8321647644043	-377.8759765625	6.793968677520752	-37.36007690429688	-405.8242492675781	-0.0	-0.0	-0.0	-0.0	-0.0	-0.0	124156.125	12863.669921875	-1079.7772216796875
0.009000000000000001	-0.0	-0.0	-0.0	-9.739049911499023	35.89762496948242	-377.96234130859375	6.882652282714844	-37.15330123901367	-405.8589782714844	-0.0	-0.0	-0.0	-0.0	-0.0	-0.0	124128.59375	12854.5078125	-1144.077392578125
0.0095	-0.0	-0.0	-0.0	-9.32201862335205	35.667179107666016	-378.6367492675781	6.949556350708008	-37.02177810668945	-408.3624572753906	-0.0	-0.0	-0.0	-0.0	-0.0	-0.0	124189.0390625	12854.5400390625	-1168.6378173828125
0.01	-0.0	-0.0	-0.0	-9.738898277282717	35.94892501831055	-378.02093505859375	6.8157477378845215	-37.124942779541016	-407.9588623046875	-0.0	-0.0	-0.0	-0.0	-0.0	-0.0	124172.0703125	12813.015625	-1040.1204833984375
0.0105	-0.0	-0.0	-0.0	-9.493467330932615	36.001346588134766	-378.8150024414063	6.986198425292969	-36.99191665649414	-406.4712829589844	-0.0	-0.0	-0.0	-0.0	-0.0	-0.0	124323.1640625	12856.0458984375	-1013.0047607421876
0.011	-0.0	-0.0	-0.0	-9.59024715423584	35.756107330322266	-377.5791931152344	7.0153584480285645	-36.9036750793457	-407.3429870605469	-0.0	-0.0	-0.0	-0.0	-0.0	-0.0	124384.96875	12916.0283203125	-1092.0157470703125
0.0115	-0.0	-0.0	-0.0	-9.32284164428711	35.60794448852539	-377.46038818359375	6.79376745223999	-36.940547943115234	-408.10003662109375	-0.0	-0.0	-0.0	-0.0	-0.0	-0.0	124415.1171875	12685.796875	-1003.2408447265624
0.012	-0.0	-0.0	-0.0	-9.032818794250488	35.6296272277832	-377.34368896484375	6.801270961761475	-37.00679016113281	-406.6160583496094	-0.0	-0.0	-0.0	-0.0	-0.0	-0.0	124390.25	12782.6787109375	-1025.50927734375
0.0125	-0.0	-0.0	-0.0	-9.076801300048828	36.03133392333984	-376.7272338867188	7.103798866271973	-36.90387725830078	-407.954833984375	-0.0	-0.0	-0.0	-0.0	-0.0	-0.0	124330.4609375	12848.1630859375	-1054.944580078125
0.013000000000000001	-0.0	-0.0	-0.0	-9.367103576660156	35.76213455200195	-376.9331970214844	7.348415374755859	-37.2348518371582	-407.80908203125	-0.0	-0.0	-0.0	-0.0	-0.0	-0.0	124744.765625	12701.7822265625	-933.5673828125
0.0135	-0.0	-0.0	-0.0	-9.128440856933594	35.98582458496094	-377.5493774414063	7.237187385559082	-37.02927017211914	-408.0693664550781	-0.0	-0.0	-0.0	-0.0	-0.0	-0.0	124419.109375	12667.119140625	-990.7223510742188
